<?xml version="1.0" standalone="no"?><!DOCTYPE svg PUBLIC "-//W3C//DTD SVG 1.1//EN" "http://www.w3.org/Graphics/SVG/1.1/DTD/svg11.dtd"><svg t="1625305561781" class="icon" viewBox="0 0 1024 1024" version="1.1" xmlns="http://www.w3.org/2000/svg" p-id="3304" xmlns:xlink="http://www.w3.org/1999/xlink" width="200" height="200"><defs><style type="text/css"></style></defs><path d="M554.632 298.914h-85.264c-11.782 0-21.344-9.546-21.344-21.328s9.562-21.328 21.344-21.328h85.264c11.81 0 21.374 9.546 21.374 21.328s-9.562 21.328-21.374 21.328z" fill="#F6BB42" p-id="3305"></path><path d="M810.562 725.43c-282.664 0-511.812-229.164-511.812-511.826 0-63.53 11.594-124.372 32.748-180.51C137.91 106.076 0.196 293.04 0.196 512.172c0 282.662 229.15 511.812 511.828 511.812 219.102 0 406.096-137.714 479.034-331.302-56.126 21.156-116.934 32.748-180.496 32.748z" fill="#FFCE54" p-id="3306"></path><path d="M554.632 981.328c-282.632 0-511.78-229.148-511.78-511.812 0-130.434 48.81-249.476 129.122-339.848C66.6 223.416 0.196 360.02 0.196 512.172c0 282.662 229.15 511.812 511.828 511.812 152.106 0 288.726-66.406 382.47-171.806-90.368 80.368-209.43 129.15-339.862 129.15z" fill="#F6BB42" p-id="3307"></path><path d="M767.938 277.586c0 11.782-9.562 21.328-21.376 21.328-11.75 0-21.312-9.546-21.312-21.328s9.562-21.328 21.312-21.328c11.814 0 21.376 9.546 21.376 21.328z" fill="#4A89DC" p-id="3308"></path><path d="M661.316 490.844c0 11.766-9.562 21.328-21.374 21.328-11.75 0-21.312-9.562-21.312-21.328 0-11.782 9.562-21.328 21.312-21.328 11.812 0 21.374 9.546 21.374 21.328z" fill="#48CFAD" p-id="3309"></path><path d="M1023.804 234.586c0 11.782-9.562 21.328-21.312 21.328-11.748 0-21.31-9.546-21.31-21.328 0-11.78 9.562-21.326 21.31-21.326 11.75 0 21.312 9.546 21.312 21.326z" fill="#ED5564" p-id="3310"></path><path d="M639.944 21.328c0 11.782-9.5 21.328-21.312 21.328-11.75 0-21.312-9.546-21.312-21.328 0-11.766 9.562-21.312 21.312-21.312a21.288 21.288 0 0 1 21.312 21.312z" fill="#AC92EB" p-id="3311"></path><path d="M512.024 192.276c-11.782 0-21.344 9.562-21.344 21.328v127.964c0 11.766 9.562 21.312 21.344 21.312 11.75 0 21.312-9.546 21.312-21.312v-127.964c0-11.766-9.562-21.328-21.312-21.328z" fill="#FFCE54" p-id="3312"></path><path d="M874.56 426.862c-11.812 0-21.312 9.546-21.312 21.328v127.934c0 11.812 9.5 21.344 21.312 21.344 11.748 0 21.308-9.532 21.308-21.344v-127.934c0.002-11.78-9.56-21.328-21.308-21.328z" fill="#F6BB42" p-id="3313"></path><path d="M917.182 533.484h-85.306c-11.75 0-21.312-9.546-21.312-21.312 0-11.782 9.562-21.328 21.312-21.328h85.306c11.812 0 21.312 9.546 21.312 21.328 0 11.766-9.5 21.312-21.312 21.312z" fill="#FFCE54" p-id="3314"></path></svg>